<svg xmlns="http://www.w3.org/2000/svg" xmlns:xlink="http://www.w3.org/1999/xlink" width="500" zoomAndPan="magnify" viewBox="0 0 375 374.999991" height="500" preserveAspectRatio="xMidYMid meet" version="1.0"><defs><clipPath id="7c2ab485c8"><path d="M 19.769531 19.769531 L 355.019531 19.769531 L 355.019531 355.019531 L 19.769531 355.019531 Z M 19.769531 19.769531 " clip-rule="nonzero"/></clipPath></defs><g clip-path="url(#7c2ab485c8)"><path fill="#ffffff" d="M 164.132812 354.675781 C 164.308594 354.847656 164.515625 354.984375 164.746094 355.082031 C 164.976562 355.175781 165.21875 355.226562 165.464844 355.226562 L 209.535156 355.226562 C 209.78125 355.226562 210.023438 355.175781 210.253906 355.082031 C 210.484375 354.984375 210.691406 354.847656 210.867188 354.675781 L 354.679688 210.863281 C 354.851562 210.691406 354.988281 210.480469 355.085938 210.25 C 355.179688 210.019531 355.230469 209.777344 355.230469 209.53125 L 355.230469 165.464844 C 355.230469 165.21875 355.179688 164.972656 355.085938 164.742188 C 354.988281 164.511719 354.851562 164.304688 354.679688 164.132812 L 210.867188 20.320312 C 210.691406 20.148438 210.484375 20.011719 210.253906 19.914062 C 210.023438 19.820312 209.777344 19.769531 209.535156 19.769531 L 165.464844 19.769531 C 165.21875 19.769531 164.976562 19.820312 164.746094 19.914062 C 164.515625 20.011719 164.308594 20.148438 164.132812 20.320312 L 20.320312 164.132812 C 20.148438 164.304688 20.011719 164.511719 19.914062 164.742188 C 19.820312 164.972656 19.769531 165.21875 19.769531 165.464844 L 19.769531 209.53125 C 19.769531 209.777344 19.820312 210.019531 19.914062 210.25 C 20.011719 210.480469 20.148438 210.691406 20.320312 210.863281 Z M 208.753906 351.457031 L 170.015625 351.457031 L 310.609375 210.863281 C 311.347656 210.128906 311.347656 208.933594 310.609375 208.199219 L 190.167969 87.75 L 209.535156 68.382812 L 350.679688 209.53125 Z M 284.585938 187.5 L 187.5 284.578125 L 90.421875 187.496094 L 187.503906 90.414062 Z M 351.460938 166.242188 L 351.460938 204.980469 L 210.867188 64.386719 C 210.128906 63.648438 208.9375 63.648438 208.199219 64.386719 L 87.753906 184.832031 L 68.386719 165.464844 L 209.535156 24.320312 Z M 166.246094 23.539062 L 204.984375 23.539062 L 64.390625 164.132812 C 63.652344 164.867188 63.652344 166.058594 64.390625 166.796875 L 86.398438 188.804688 C 86.40625 188.8125 86.410156 188.828125 86.417969 188.835938 C 86.425781 188.84375 86.4375 188.84375 86.445312 188.855469 L 184.835938 287.242188 L 165.464844 306.609375 L 24.320312 165.464844 Z M 23.539062 170.011719 L 164.132812 310.609375 C 164.5 310.976562 164.980469 311.160156 165.464844 311.160156 C 165.949219 311.160156 166.429688 310.976562 166.796875 310.609375 L 188.8125 288.59375 C 188.820312 288.589844 188.828125 288.585938 188.835938 288.578125 C 188.84375 288.570312 188.847656 288.5625 188.851562 288.554688 L 287.25 190.167969 L 306.613281 209.53125 L 165.464844 350.679688 L 23.539062 208.75 Z M 23.539062 170.011719 " fill-opacity="1" fill-rule="nonzero"/><path fill="#ffffff" d="M 164.132812 354.675781 C 164.308594 354.847656 164.515625 354.984375 164.746094 355.082031 C 164.976562 355.175781 165.21875 355.226562 165.464844 355.226562 L 209.535156 355.226562 C 209.78125 355.226562 210.023438 355.175781 210.253906 355.082031 C 210.484375 354.984375 210.691406 354.847656 210.867188 354.675781 L 354.679688 210.863281 C 354.851562 210.691406 354.988281 210.480469 355.085938 210.25 C 355.179688 210.019531 355.230469 209.777344 355.230469 209.53125 L 355.230469 165.464844 C 355.230469 165.21875 355.179688 164.972656 355.085938 164.742188 C 354.988281 164.511719 354.851562 164.304688 354.679688 164.132812 L 210.867188 20.320312 C 210.691406 20.148438 210.484375 20.011719 210.253906 19.914062 C 210.023438 19.820312 209.777344 19.769531 209.535156 19.769531 L 165.464844 19.769531 C 165.21875 19.769531 164.976562 19.820312 164.746094 19.914062 C 164.515625 20.011719 164.308594 20.148438 164.132812 20.320312 L 20.320312 164.132812 C 20.148438 164.304688 20.011719 164.511719 19.914062 164.742188 C 19.820312 164.972656 19.769531 165.21875 19.769531 165.464844 L 19.769531 209.53125 C 19.769531 209.777344 19.820312 210.019531 19.914062 210.25 C 20.011719 210.480469 20.148438 210.691406 20.320312 210.863281 Z M 208.753906 351.457031 L 170.015625 351.457031 L 310.609375 210.863281 C 311.347656 210.128906 311.347656 208.933594 310.609375 208.199219 L 190.167969 87.75 L 209.535156 68.382812 L 350.679688 209.53125 Z M 284.585938 187.5 L 187.5 284.578125 L 90.421875 187.496094 L 187.503906 90.414062 Z M 351.460938 166.242188 L 351.460938 204.980469 L 210.867188 64.386719 C 210.128906 63.648438 208.9375 63.648438 208.199219 64.386719 L 87.753906 184.832031 L 68.386719 165.464844 L 209.535156 24.320312 Z M 166.246094 23.539062 L 204.984375 23.539062 L 64.390625 164.132812 C 63.652344 164.867188 63.652344 166.058594 64.390625 166.796875 L 86.398438 188.804688 C 86.40625 188.8125 86.410156 188.828125 86.417969 188.835938 C 86.425781 188.84375 86.4375 188.84375 86.445312 188.855469 L 184.835938 287.242188 L 165.464844 306.609375 L 24.320312 165.464844 Z M 23.539062 170.011719 L 164.132812 310.609375 C 164.5 310.976562 164.980469 311.160156 165.464844 311.160156 C 165.949219 311.160156 166.429688 310.976562 166.796875 310.609375 L 188.8125 288.59375 C 188.820312 288.589844 188.828125 288.585938 188.835938 288.578125 C 188.84375 288.570312 188.847656 288.5625 188.851562 288.554688 L 287.25 190.167969 L 306.613281 209.53125 L 165.464844 350.679688 L 23.539062 208.75 Z M 23.539062 170.011719 " fill-opacity="1" fill-rule="nonzero"/></g></svg>